<?xml version="1.0" encoding="UTF-8" standalone="no"?>
<svg width="81px" height="51px" viewBox="0 0 81 51" version="1.1" xmlns="http://www.w3.org/2000/svg" xmlns:xlink="http://www.w3.org/1999/xlink" xmlns:sketch="http://www.bohemiancoding.com/sketch/ns">
    <!-- Generator: Sketch 3.2.2 (9983) - http://www.bohemiancoding.com/sketch -->
    <title>Flag</title>
    <desc>Created with Sketch.</desc>
    <defs></defs>
    <g id="Page-1" stroke="none" stroke-width="1" fill="none" fill-rule="evenodd" sketch:type="MSPage">
        <g id="Screen" sketch:type="MSArtboardGroup" transform="translate(-301.000000, -14.000000)" fill="#FFFFFF">
            <g id="Flag" sketch:type="MSLayerGroup" transform="translate(301.000000, 14.000000)">
                <rect id="Rectangle-13" sketch:type="MSShapeGroup" x="1" y="3.47738652" width="2" height="47.5226135"></rect>
                <ellipse id="Oval-1" sketch:type="MSShapeGroup" cx="2" cy="2.36256259" rx="1.73417057" ry="1.73417057"></ellipse>
                <path d="M4.46834113,5.34419017 L4.46834113,29.5638985 C4.46834113,29.5638985 12.1179978,27.4635744 18.6032345,27.4635744 C25.0884711,27.4635744 29.6034112,27.581638 29.6034112,27.581638 C29.6034112,27.581638 29.8431661,33.1768071 30.3425144,33.7218792 C30.8418626,34.2669514 31.1877618,35.1045333 36.6298504,34.2669514 C42.071939,33.4293695 43.9626455,31.9593521 47.2504354,31.2786058 C50.5382254,30.5978594 54.178892,30.6333718 54.178892,30.6333718 C54.178892,30.6333718 52.9022154,34.8848477 53.2580978,35.2097615 C53.6139801,35.5346752 60.6972734,33.0621305 66.7784831,31.9400486 C72.8596928,30.8179667 80.6777344,30.389504 80.6777344,30.389504 C80.6777344,30.389504 75.5932275,28.1403751 70.4669826,27.5816386 C65.3407377,27.0229022 58.3224661,28.2488879 58.3224661,28.2488879 C58.3224661,28.2488879 59.473338,23.6829 58.7427025,23.1247616 C58.012067,22.5666232 51.0554659,22.7479167 46.473107,23.1247622 C41.8907482,23.5016077 36.7406554,24.9341731 36.7406554,24.9341731 L37.0503287,18.5919178 C37.0503287,18.5919178 41.4987375,19.1304597 46.0255323,17.932894 C50.5523272,16.7353283 54.1447796,16.7343615 54.1447796,16.7343615 C54.1447796,16.7343615 52.7870556,21.0898705 53.4760787,21.0898692 C54.1651019,21.0898679 61.241621,18.7987696 67.3470239,17.932894 C73.4524269,17.0670184 80.4416085,16.7343615 80.4416085,16.7343615 C80.4416085,16.7343615 74.0325615,14.3788954 69.1029684,13.7823038 C64.1733754,13.1857123 58.0553729,14.1478635 58.0553729,14.1478635 C58.0553729,14.1478635 59.6918028,10.0021125 59.3112433,9.30728296 C58.9306839,8.61245346 52.6301785,8.20273985 46.5851217,9.30728296 C39.7198094,10.5617018 37.1983912,9.30728281 37.1983912,9.30728281 L36.7406554,4.63218337 C36.7406554,4.63218337 31.779834,1.76044736 19.9128139,2.47753464 C8.04579372,3.19462191 4.46834113,5.34419017 4.46834113,5.34419017 Z" id="Path-1" sketch:type="MSShapeGroup"></path>
            </g>
        </g>
    </g>
</svg>